<svg width="786" height="1227" viewBox="0 0 786 1227" fill="none" xmlns="http://www.w3.org/2000/svg">
<path d="M744.252 267.923C683.551 292.967 616.705 281.84 568.318 244.494L428.259 641.16C406.134 580.702 383.588 520.196 360.621 459.714C337.629 399.232 314.662 358.561 291.669 298.079L109.467 278.269L327.421 857.896L305.717 909.574C295.51 934.764 273.806 956.188 240.631 973.822C233.743 977.49 226.905 981.012 220.141 984.412C241.969 1001.87 259.832 1024.77 271.427 1052.13C284.137 1082.14 287.656 1113.69 283.221 1143.7C313.472 1130.69 342.683 1114.18 370.828 1094.17C421.025 1058.44 456.355 1015.81 476.77 966.265L749.281 265.747C747.621 266.505 745.936 267.214 744.252 267.923Z" fill="#D3F782"/>
<path d="M676.54 216.1C736.993 216.1 786 167.725 786 108.05C786 48.3756 736.993 0 676.54 0C616.087 0 567.08 48.3756 567.08 108.05C567.08 167.725 616.087 216.1 676.54 216.1Z" fill="#D3F782"/>
<path d="M109.46 1227C169.913 1227 218.92 1178.62 218.92 1118.95C218.92 1059.28 169.913 1010.9 109.46 1010.9C49.0069 1010.9 0 1059.28 0 1118.95C0 1178.62 49.0069 1227 109.46 1227Z" fill="#D3F782"/>
</svg>
