<svg width="35" height="53" viewBox="0 0 35 53" fill="none" xmlns="http://www.w3.org/2000/svg">
<path d="M33.1415 11.5728C30.4385 12.6546 27.4619 12.1739 25.3073 10.5608L19.0706 27.6947C18.0854 25.0832 17.0814 22.4697 16.0587 19.8572C15.0349 17.2447 14.0122 15.4879 12.9883 12.8754L4.875 12.0197L14.5803 37.0566L13.6139 39.2888C13.1593 40.3769 12.1929 41.3023 10.7156 42.064C10.4089 42.2224 10.1044 42.3745 9.80324 42.5214C10.7752 43.2757 11.5707 44.2645 12.087 45.4466C12.6529 46.7428 12.8096 48.1056 12.6121 49.4018C13.9592 48.8398 15.2599 48.1267 16.5132 47.2625C18.7484 45.7191 20.3217 43.8778 21.2307 41.7375L33.3654 11.4788C33.2915 11.5116 33.2165 11.5422 33.1415 11.5728Z" fill="#9CDC0E"/>
<path d="M30.1261 9.33441C32.818 9.33441 35.0003 7.24483 35.0003 4.6672C35.0003 2.08957 32.818 0 30.1261 0C27.4342 0 25.252 2.08957 25.252 4.6672C25.252 7.24483 27.4342 9.33441 30.1261 9.33441Z" fill="#9CDC0E"/>
<path d="M4.87418 53C7.56611 53 9.74837 50.9104 9.74837 48.3327C9.74837 45.7551 7.56611 43.6655 4.87418 43.6655C2.18224 43.6655 0 45.7551 0 48.3327C0 50.9104 2.18224 53 4.87418 53Z" fill="#9CDC0E"/>
</svg>
