<svg width="1824" height="507" viewBox="0 0 1824 507" fill="none" xmlns="http://www.w3.org/2000/svg">
<g clip-path="url(#clip0)">
<path d="M237.55 368.93H-0.47998V18.58H75.26V309.68H227.76L237.55 368.93Z" fill="#1A1A1A"/>
<path d="M340.59 42.29C340.59 53.97 336.38 63.85 327.97 71.92C319.55 79.99 309.5 84.03 297.83 84.03C286.15 84.03 276.36 80 268.46 71.92C260.56 63.85 256.61 53.98 256.61 42.29C256.61 30.62 260.56 20.65 268.46 12.41C276.36 4.17003 286.15 0.0400391 297.83 0.0400391C309.5 0.0400391 319.55 4.16003 327.97 12.41C336.38 20.65 340.59 30.61 340.59 42.29ZM335.96 119.05V368.93H260.22V119.05H335.96V119.05Z" fill="#1A1A1A"/>
<path d="M686.3 109.78C719.96 109.78 744 119.66 758.43 139.41C772.86 159.17 780.07 183.64 780.07 212.83V368.94H703.82V215.92C703.82 202.19 700.47 191.62 693.77 184.23C687.07 176.85 677.71 173.15 665.69 173.15C657.45 173.15 648.51 175.39 638.9 179.85C629.28 184.32 620.35 189.3 612.11 194.79C612.45 197.88 612.79 200.89 613.14 203.81C613.48 206.73 613.66 209.74 613.66 212.83V368.94H537.4V215.92C537.4 202.19 534.05 191.62 527.35 184.23C520.65 176.85 511.46 173.15 499.79 173.15C492.23 173.15 484.24 174.95 475.83 178.56C467.41 182.17 459.25 186.21 451.36 190.67V368.94H375.62V119.06H414.78L432.3 141.73C443.29 132.8 456.77 125.24 472.74 119.06C488.71 112.88 504.43 109.79 519.88 109.79C538.43 109.79 553.88 112.97 566.25 119.32C578.61 125.68 588.57 134.35 596.13 145.34C606.77 135.38 620.51 126.97 637.35 120.09C654.18 113.22 670.5 109.78 686.3 109.78Z" fill="#1A1A1A"/>
<path d="M895.99 42.29C895.99 53.97 891.78 63.85 883.37 71.92C874.95 79.99 864.9 84.03 853.23 84.03C841.55 84.03 831.76 80 823.86 71.92C815.95 63.85 812.01 53.98 812.01 42.29C812.01 30.62 815.96 20.65 823.86 12.41C831.76 4.17003 841.55 0.0400391 853.23 0.0400391C864.9 0.0400391 874.95 4.16003 883.37 12.41C891.78 20.65 895.99 30.61 895.99 42.29ZM891.35 119.05V368.93H815.61V119.05H891.35V119.05Z" fill="#1A1A1A"/>
<path d="M1060.34 7.25C1069.61 7.25 1079.92 9.05003 1091.25 12.66C1102.58 16.27 1111 20.48 1116.5 25.28L1094.86 78.86C1089.36 76.46 1083.95 74.5699 1078.63 73.1899C1073.3 71.8199 1068.58 71.13 1064.46 71.13C1052.78 71.13 1044.19 74.91 1038.7 82.46C1033.2 90.02 1030.46 99.98 1030.46 112.34V128.31H1085.07L1102.07 187.56H1030.46V368.92H954.72V187.56H915.05V128.31H954.72V102.55C954.72 72.33 964.51 48.89 984.09 32.22C1003.66 15.58 1029.08 7.25 1060.34 7.25Z" fill="#1A1A1A"/>
<path d="M1367.17 114.82C1342.67 125.06 1315.69 120.51 1296.16 105.24L1239.63 267.43C1230.7 242.71 1221.6 217.97 1212.33 193.24C1203.05 168.51 1193.78 151.88 1184.5 127.15L1110.96 119.05L1198.93 356.05L1190.17 377.18C1186.05 387.48 1177.29 396.24 1163.9 403.45C1161.12 404.95 1158.36 406.39 1155.63 407.78C1164.44 414.92 1171.65 424.28 1176.33 435.47C1181.46 447.74 1182.88 460.64 1181.09 472.91C1193.3 467.59 1205.09 460.84 1216.45 452.66C1236.71 438.05 1250.97 420.62 1259.21 400.36L1369.2 113.93C1368.53 114.24 1367.85 114.53 1367.17 114.82Z" fill="#9CDC0E"/>
<path d="M1574.53 164.4C1555.98 188.79 1542.92 210.68 1524.03 235.24C1505.14 259.8 1486.42 284.28 1467.87 308.66H1560.18C1567.55 331.25 1581.77 351.19 1601.57 368.94H1378.22L1368.95 329.27C1384.06 309.69 1399.94 288.4 1416.61 265.38C1433.27 242.37 1454.65 214.03 1480.75 180.37H1375.3L1391.3 119.06H1576.57L1574.53 164.4Z" fill="#1A1A1A"/>
<path d="M1708.12 111.84C1747.28 111.84 1776.3 124.72 1795.19 150.48C1814.07 176.24 1823.53 206.82 1823.53 242.19V266.92H1660.72C1664.15 281.01 1671.28 292 1682.1 299.89C1692.92 307.8 1706.74 311.74 1723.57 311.74C1734.9 311.74 1745.47 310.45 1755.26 307.88C1765.05 305.3 1775.61 301.27 1786.95 295.77L1809.1 349.35C1796.39 358.97 1780.93 365.67 1762.73 369.44C1744.52 373.22 1730.09 375.11 1719.45 375.11C1677.2 375.11 1643.28 363.69 1617.69 340.85C1592.1 318.01 1579.31 285.81 1579.31 244.25C1579.31 203.72 1591.16 171.52 1614.86 147.65C1638.56 123.78 1669.64 111.84 1708.12 111.84ZM1706.05 174.7C1694.37 174.7 1684.41 178.48 1676.17 186.03C1667.93 193.59 1662.6 204.24 1660.2 217.97H1751.39C1748.98 204.92 1744 194.45 1736.45 186.54C1728.89 178.65 1718.76 174.7 1706.05 174.7Z" fill="#1A1A1A"/>
<path d="M1339.84 93.63C1364.24 93.63 1384.02 73.8499 1384.02 49.45C1384.02 25.05 1364.24 5.27002 1339.84 5.27002C1315.44 5.27002 1295.66 25.05 1295.66 49.45C1295.66 73.8499 1315.44 93.63 1339.84 93.63Z" fill="#9CDC0E"/>
<path d="M1110.96 506.97C1135.36 506.97 1155.14 487.19 1155.14 462.79C1155.14 438.39 1135.36 418.61 1110.96 418.61C1086.56 418.61 1066.78 438.39 1066.78 462.79C1066.78 487.19 1086.56 506.97 1110.96 506.97Z" fill="#9CDC0E"/>
<path d="M1823.52 31.71H1339.84V67.1801H1823.52V31.71Z" fill="#9CDC0E"/>
<path d="M1095.83 445.06H-0.47998V480.53H1095.83V445.06Z" fill="#9CDC0E"/>
</g>
<defs>
<clipPath id="clip0">
<rect width="1824" height="507" fill="white"/>
</clipPath>
</defs>
</svg>
