<svg width="48" height="48" viewBox="0 0 48 48" fill="none" xmlns="http://www.w3.org/2000/svg">
<path d="M12 44C10.9 44 9.95833 43.6083 9.175 42.825C8.39167 42.0417 8 41.1 8 40V8C8 6.9 8.39167 5.95833 9.175 5.175C9.95833 4.39167 10.9 4 12 4H40V8H36V12C36 12.5667 35.8083 13.0417 35.425 13.425C35.0417 13.8083 34.5667 14 34 14H18C17.4333 14 16.9583 13.8083 16.575 13.425C16.1917 13.0417 16 12.5667 16 12V8H12V40H20.1C18.8333 39.1 17.8333 37.9583 17.1 36.575C16.3667 35.1917 16 33.6667 16 32V22H36V32C36 33.6667 35.6333 35.1917 34.9 36.575C34.1667 37.9583 33.1667 39.1 31.9 40H40V44H12ZM26 38C27.6667 38 29.0833 37.4167 30.25 36.25C31.4167 35.0833 32 33.6667 32 32V26H20V32C20 33.6667 20.5833 35.0833 21.75 36.25C22.9167 37.4167 24.3333 38 26 38ZM26 20C26.5667 20 27.0417 19.8083 27.425 19.425C27.8083 19.0417 28 18.5667 28 18C28 17.4333 27.8083 16.9583 27.425 16.575C27.0417 16.1917 26.5667 16 26 16C25.4333 16 24.9583 16.1917 24.575 16.575C24.1917 16.9583 24 17.4333 24 18C24 18.5667 24.1917 19.0417 24.575 19.425C24.9583 19.8083 25.4333 20 26 20Z" fill="#9CDC0E"/>
</svg>
