<svg width="48" height="48" viewBox="0 0 48 48" fill="none" xmlns="http://www.w3.org/2000/svg">
<path d="M6 44V40H10V33.6C8.83333 33.2 7.875 32.4917 7.125 31.475C6.375 30.4583 6 29.3 6 28V12H18V28C18 29.3 17.625 30.4583 16.875 31.475C16.125 32.4917 15.1667 33.2 14 33.6V40H18V44H6ZM10 22H14V16H10V22ZM12 30C12.5667 30 13.0417 29.8083 13.425 29.425C13.8083 29.0417 14 28.5667 14 28V26H10V28C10 28.5667 10.1917 29.0417 10.575 29.425C10.9583 29.8083 11.4333 30 12 30ZM26 44C24.9 44 23.9583 43.6083 23.175 42.825C22.3917 42.0417 22 41.1 22 40V20.9C22 20.0333 22.25 19.2583 22.75 18.575C23.25 17.8917 23.9 17.4 24.7 17.1L26.6 16.4C27.0667 16.2333 27.4167 15.9917 27.65 15.675C27.8833 15.3583 28 14.9667 28 14.5V6C28 5.43333 28.1917 4.95833 28.575 4.575C28.9583 4.19167 29.4333 4 30 4H36C36.5667 4 37.0417 4.19167 37.425 4.575C37.8083 4.95833 38 5.43333 38 6V14.5C38 14.9667 38.1167 15.3583 38.35 15.675C38.5833 15.9917 38.9333 16.2333 39.4 16.4L41.3 17.1C42.1 17.4 42.75 17.8917 43.25 18.575C43.75 19.2583 44 20.0333 44 20.9V40C44 41.1 43.6083 42.0417 42.825 42.825C42.0417 43.6083 41.1 44 40 44H26ZM32 10H34V8H32V10ZM26 24H40V20.9L38.1 20.2C36.8333 19.7333 35.8333 19 35.1 18C34.3667 17 34 15.8667 34 14.6V14H32V14.6C32 15.8667 31.6333 17 30.9 18C30.1667 19 29.1667 19.7333 27.9 20.2L26 20.9V24ZM26 40H40V36H26V40ZM26 32H40V28H26V32Z" fill="#9CDC0E"/>
</svg>
