<svg width="48" height="48" viewBox="0 0 48 48" fill="none" xmlns="http://www.w3.org/2000/svg">
<path d="M34 22V16H28V12H34V6H38V12H44V16H38V22H34ZM22 38C23.8 38 25.475 37.6417 27.025 36.925C28.575 36.2083 29.9 35.2167 31 33.95C26.8 33.6833 23.25 32.025 20.35 28.975C17.45 25.925 16 22.2667 16 18C16 17.5667 16.0167 17.1417 16.05 16.725C16.0833 16.3083 16.1333 15.9 16.2 15.5C14.3333 16.5333 12.8333 17.975 11.7 19.825C10.5667 21.675 10 23.7333 10 26C10 29.3333 11.1667 32.1667 13.5 34.5C15.8333 36.8333 18.6667 38 22 38ZM22 42C17.5333 42 13.75 40.45 10.65 37.35C7.55 34.25 6 30.4667 6 26C6 21.5333 7.55 17.75 10.65 14.65C13.75 11.55 17.5333 10 22 10C22.1667 10 22.3333 10.0083 22.5 10.025C22.6667 10.0417 22.8333 10.05 23 10.05C22.0333 11.1167 21.2917 12.325 20.775 13.675C20.2583 15.025 20 16.4667 20 18C20 21.3333 21.1667 24.1667 23.5 26.5C25.8333 28.8333 28.6667 30 32 30C33.0667 30 34.0833 29.8667 35.05 29.6C36.0167 29.3333 36.9333 28.9667 37.8 28.5C37.2 32.3333 35.425 35.5417 32.475 38.125C29.525 40.7083 26.0333 42 22 42Z" fill="#9CDC0E"/>
</svg>
