<svg width="48" height="48" viewBox="0 0 48 48" fill="none" xmlns="http://www.w3.org/2000/svg">
<path d="M8.65017 18H39.3502L37.6502 12H10.4002L8.65017 18ZM33.6002 22H14.4502L13.9002 26H34.1002L33.6002 22ZM8.00017 40L10.4502 22H6.00017C5.33351 22 4.8085 21.7333 4.42517 21.2C4.04184 20.6667 3.9335 20.0833 4.10017 19.45L6.95017 9.45C7.08351 9.01667 7.31684 8.66667 7.65017 8.4C7.98351 8.13333 8.3835 8 8.85017 8H39.1502C39.6168 8 40.0168 8.13333 40.3502 8.4C40.6835 8.66667 40.9168 9.01667 41.0502 9.45L43.9002 19.45C44.0668 20.0833 43.9585 20.6667 43.5752 21.2C43.1918 21.7333 42.6668 22 42.0002 22H37.6002L40.0002 40H36.0002L34.6502 30H13.3502L12.0002 40H8.00017Z" fill="#9CDC0E"/>
</svg>
