<svg width="48" height="48" viewBox="0 0 48 48" fill="none" xmlns="http://www.w3.org/2000/svg">
<path d="M22.2 18C20.3667 18 18.5667 18.2583 16.8 18.775C15.0333 19.2917 13.4 20.0667 11.9 21.1L14 40H34L36.2 20H34.8C33.5333 20 32.3833 19.9083 31.35 19.725C30.3167 19.5417 28.9 19.1833 27.1 18.65C26.3333 18.4167 25.5333 18.25 24.7 18.15C23.8667 18.05 23.0333 18 22.2 18ZM11.4 16.75C13.1 15.85 14.8583 15.1667 16.675 14.7C18.4917 14.2333 20.35 14 22.25 14C23.25 14 24.2417 14.0667 25.225 14.2C26.2083 14.3333 27.1833 14.5333 28.15 14.8C29.8167 15.2667 31.0917 15.5833 31.975 15.75C32.8583 15.9167 33.8 16 34.8 16H36.65L37.5 8H10.5L11.4 16.75ZM13.95 44C12.9167 44 12.025 43.6667 11.275 43C10.525 42.3333 10.1 41.4833 10 40.45L6 4H42L38 40.45C37.9 41.4833 37.475 42.3333 36.725 43C35.975 43.6667 35.0833 44 34.05 44H13.95ZM22.2 40H34H14H22.2Z" fill="#9CDC0E"/>
</svg>
